<svg width="320" height="180" viewBox="0 0 320 180" xmlns="http://www.w3.org/2000/svg" style="background:#AA0404"><title>Authentication</title><g fill="none" fill-rule="evenodd"><path stroke="#FFF" stroke-width="16" fill="#FFF" stroke-linejoin="round" d="M160.5 32l50.662 29.25v58.5L160.5 149l-50.662-29.25v-58.5z"/><path d="M120 50h80v80h-80"/><path d="M180 76.667h-3.333V70c0-9.2-7.467-16.667-16.667-16.667-9.2 0-16.667 7.467-16.667 16.667v6.667H140c-3.667 0-6.667 3-6.667 6.666v33.334c0 3.666 3 6.666 6.667 6.666h40c3.667 0 6.667-3 6.667-6.666V83.333c0-3.666-3-6.666-6.667-6.666zm-20 30c-3.667 0-6.667-3-6.667-6.667s3-6.667 6.667-6.667 6.667 3 6.667 6.667-3 6.667-6.667 6.667zm10.333-30h-20.666V70c0-5.7 4.633-10.333 10.333-10.333S170.333 64.3 170.333 70v6.667z" fill="#AA0404" fill-rule="nonzero"/></g></svg>