<svg xmlns="http://www.w3.org/2000/svg" viewBox="0 0 48 48"><g fill="none" fill-rule="evenodd"><g fill="#FFF" fill-rule="nonzero"><path d="M21.104 21.424c-.912 0-1.632.8-1.632 1.776s.736 1.776 1.632 1.776c.912 0 1.632-.8 1.632-1.776.016-.976-.72-1.776-1.632-1.776zm5.84 0c-.912 0-1.632.8-1.632 1.776s.736 1.776 1.632 1.776c.912 0 1.632-.8 1.632-1.776s-.72-1.776-1.632-1.776z"/><path d="M34.72 8H13.28C11.472 8 10 9.472 10 11.296v21.632c0 1.824 1.472 3.296 3.28 3.296h18.144l-.848-2.96 2.048 1.904 1.936 1.792L38 40V11.296C38 9.472 36.528 8 34.72 8zm-6.176 20.896s-.576-.688-1.056-1.296c2.096-.592 2.896-1.904 2.896-1.904-.656.432-1.28.736-1.84.944-.8.336-1.568.56-2.32.688-1.536.288-2.944.208-4.144-.016-.912-.176-1.696-.432-2.352-.688-.368-.144-.768-.32-1.168-.544-.048-.032-.096-.048-.144-.08-.032-.016-.048-.032-.064-.048-.288-.16-.448-.272-.448-.272s.768 1.28 2.8 1.888c-.48.608-1.072 1.328-1.072 1.328-3.536-.112-4.88-2.432-4.88-2.432 0-5.152 2.304-9.328 2.304-9.328 2.304-1.728 4.496-1.680133 4.496-1.680133l.16.192133c-2.88.832-4.208 2.096-4.208 2.096s.352-.192.944-.464c1.712-.752 3.072-.96 3.632-1.008.096-.016.176-.032.272-.032.976-.128 2.08-.16 3.232-.032 1.52.176 3.152.624 4.816 1.536 0 0-1.264-1.2-3.984-2.032l.224-.256133S28.832 15.408 31.136 17.136c0 0 2.304 4.176 2.304 9.328 0 0-1.36 2.32-4.896 2.432z"/></g><path d="M0 0h48v48H0z"/></g></svg>
