<svg width="75" height="43" viewBox="0 0 75 43" xmlns="http://www.w3.org/2000/svg"><title>logo</title><g fill="#FFF" fill-rule="evenodd"><path d="M24.563 11.896c-.742.057-1.635.134-2.845.134-1.21 0-2.103-.077-2.846-.134-.43-.034-.66.06-.582.275.062.176.59.226 1.112.777.444.47.534 1.277.534 2.6v5.47c.002.737.16.95.917 1.48.856.598 1.668 1.26 2.143 1.958.09.13.228.225.34.19.126-.04.17-.488.17-.488v-9.1c0-1.46.235-1.8.528-2.11.52-.55 1.05-.6 1.112-.776.077-.214-.153-.308-.583-.274"/><path d="M14.844 1.632c2.86 0 4.23.693 5.613 1.825.98.8 1.66 1.9 2.06 2.68.418.885.35 1.14.588 1.245.133.06.39-.064.39-.59.018-.84.01-1.937.002-3.75-.003-.583-.372-.8-2.194-1.566-.84-.352-3.313-1.312-6.46-1.312-7.407 0-12.658 5.562-12.658 12.418 0 6.128 4.17 11.107 8.46 12.383.144.043.327.097.427.113.222.037.263-.163.263-.68 0-.19-.038-.274-.306-.517-2.69-2.442-4.557-6.862-4.557-11.125 0-6.29 3.612-11.123 8.37-11.123M40.412 17.426c-.18-.082-.43.11-.65.465l-1.312 2.117L31.917 4.26c-.497-1.404-.47-1.8-.332-2.243.096-.307.6-.62.663-.795.076-.216-.153-.31-.583-.276-.743.058-1.635.133-2.845.133-1.21 0-2.103-.076-2.845-.134-.43-.034-.66.06-.584.276.064.174.593.225 1.114.775.31.328.817.902 1.587 2.414.135.29.264.586.39.88l.304.736c.06.148.122.296.183.442.006.017.014.033.02.048l8.01 19.278c.114.27.27.495.44.495.124 0 .306-.16.375-.363l2.546-7.434c.17-.498.278-.964.054-1.067M55.937.946c-.565.044-1.217.098-2.028.12-.922-.008-.957-.067-1.635-.12-.43-.034-.66.06-.583.276.062.174.567.488.664.795.125.402.158.767-.21 1.88l-5.566 15.76L40.183 4.2c-.476-1.354-.45-1.747-.313-2.183.096-.307.602-.62.664-.795.076-.216-.153-.31-.583-.276-.742.058-1.634.133-2.845.133-1.21 0-2.103-.076-2.844-.134-.43-.034-.66.06-.584.276.064.174.592.225 1.113.775.314.333.834.92 1.625 2.49.124.268.242.54.357.81l.297.717.185.454.023.048 8.035 19.34c.193.45.534.743.768.09l7.626-21.314v.003c.71-1.88 1.295-2.315 1.592-2.615.533-.54 1.16-.624 1.222-.798.076-.216-.154-.31-.583-.276M72.982 19.284c-.173.063-.524.61-1.096 1.13-.704.636-2.256 1.256-4.68 1.256H61.06c4.59-6.25 10.68-10.826 10.68-15.3 0-4.07-2.21-6.37-7.4-6.37-1.625 0-4.225.737-6.556 2.09-.357.207-.452.41-.452.705l.006 3.65c0 .683.254.748.386.69.16-.07.18-.218.302-.578.206-.606 1.008-2.286 2.593-3.684 1.28-1.13 2.45-1.346 3.46-1.346 3.007 0 3.925 2.2 3.925 4.513 0 3.56-2.916 7.06-5.29 10.32-3.245 4.46-5.305 7.16-6.09 8.195-.08.106-.114.216-.075.284.06.102.22.096.47.082 1.444-.08 4.85-.265 7.373-.213 1.913.038 4.75.196 5.23.22.544.03 1.438.06 1.732-.08.24-.116.45-.64.548-.933.645-1.954 1.227-2.917 1.353-4.045.048-.43-.06-.665-.274-.588M4.663 38.456h2.212c.15 0 .336-.012.56-.035.224-.023.462-.08.714-.167.25-.09.5-.217.748-.385.247-.168.47-.397.665-.686.196-.29.357-.65.483-1.085.126-.434.19-.96.19-1.575 0-.598-.06-1.132-.176-1.603-.117-.473-.308-.874-.574-1.205-.266-.332-.61-.584-1.03-.756-.42-.174-.937-.26-1.553-.26h-2.24v7.756zm-1.33-8.876h3.43c1.54 0 2.725.392 3.556 1.176.83.784 1.245 1.978 1.245 3.584 0 .84-.093 1.584-.28 2.233-.187.648-.476 1.194-.868 1.638-.392.444-.89.782-1.498 1.016-.608.233-1.326.35-2.157.35h-3.43V29.58zm14.686 5.684c-.02-.28-.083-.546-.19-.798s-.252-.47-.434-.65c-.182-.183-.397-.328-.644-.435-.247-.107-.52-.16-.82-.16-.307 0-.585.053-.832.16-.247.108-.46.255-.637.442-.177.186-.317.403-.42.65-.103.248-.163.512-.182.792h4.16zm1.147 2.016c-.16.812-.51 1.423-1.05 1.834-.54.41-1.223.616-2.044.616-.58 0-1.08-.094-1.505-.28-.425-.187-.782-.448-1.07-.784-.29-.336-.507-.738-.652-1.204-.145-.467-.226-.976-.245-1.526 0-.55.085-1.055.253-1.512.168-.458.404-.854.707-1.19.303-.336.663-.598 1.078-.784.415-.187.87-.28 1.365-.28.644 0 1.178.133 1.603.4.425.265.765.603 1.022 1.014.257.41.434.858.532 1.344.098.485.138.947.12 1.386h-5.42c-.008.317.03.618.113.903.084.284.22.536.406.756.186.22.424.394.713.525.29.13.63.196 1.022.196.504 0 .917-.117 1.24-.35.32-.234.533-.588.636-1.064h1.177zm4.606 2.296l2.646-7.238h-1.247L23.2 38.372h-.03l-2.03-6.034h-1.33l2.69 7.238h1.273zm8.764-4.312c-.02-.28-.082-.546-.19-.798-.106-.252-.25-.47-.433-.65-.182-.183-.397-.328-.644-.435-.247-.107-.52-.16-.82-.16-.307 0-.585.053-.832.16-.247.108-.46.255-.637.442-.176.186-.316.403-.42.65-.102.248-.162.512-.18.792h4.157zm1.148 2.016c-.16.812-.51 1.423-1.05 1.834-.54.41-1.223.616-2.044.616-.578 0-1.08-.094-1.504-.28-.425-.187-.782-.448-1.07-.784-.29-.336-.507-.738-.652-1.204-.145-.467-.226-.976-.245-1.526 0-.55.083-1.055.25-1.512.17-.458.405-.854.708-1.19.303-.336.663-.598 1.078-.784.415-.187.87-.28 1.365-.28.645 0 1.18.133 1.604.4.425.265.765.603 1.022 1.014.257.41.434.858.532 1.344.098.485.138.947.12 1.386h-5.42c-.008.317.03.618.113.903.085.284.22.536.407.756.187.22.425.394.714.525.29.13.63.196 1.023.196.504 0 .917-.117 1.24-.35.32-.234.533-.588.636-1.064h1.175zm1.414-7.7v9.996h1.19V29.58H35.1zm3.905 6.384c0 .438.058.828.175 1.17.117.34.278.624.483.853.205.228.446.403.72.525.276.12.568.182.876.182.307 0 .6-.06.874-.182.275-.122.516-.297.72-.525.206-.23.367-.514.484-.854.117-.34.175-.73.175-1.17 0-.438-.058-.828-.175-1.168-.117-.34-.278-.628-.483-.86-.205-.235-.446-.412-.72-.533-.276-.122-.568-.182-.876-.182-.31 0-.6.06-.876.182-.275.12-.516.298-.72.532-.206.233-.367.52-.484.86-.117.34-.175.73-.175 1.17zm-1.26 0c0-.532.075-1.03.224-1.49.148-.463.372-.865.67-1.205.3-.342.668-.61 1.107-.806.44-.196.943-.294 1.512-.294.578 0 1.084.098 1.518.294.434.196.8.464 1.1.805.298.34.522.74.67 1.203.15.462.225.96.225 1.49 0 .533-.075 1.027-.224 1.485-.15.457-.374.856-.673 1.197-.3.34-.665.606-1.1.798-.433.19-.94.287-1.518.287-.57 0-1.074-.096-1.513-.287-.44-.192-.807-.458-1.106-.798-.298-.34-.522-.74-.67-1.197-.15-.458-.225-.952-.225-1.484zm8.47-3.626h1.19v.98h.028c.196-.402.504-.693.924-.875.42-.182.882-.273 1.386-.273.56 0 1.048.102 1.463.308.415.205.76.483 1.036.833.275.35.483.754.623 1.212.14.457.21.942.21 1.456 0 .513-.068.998-.203 1.456-.135.457-.34.856-.616 1.197-.275.34-.62.61-1.036.806-.415.196-.898.294-1.45.294-.176 0-.375-.02-.594-.056-.22-.038-.436-.098-.65-.182-.216-.084-.42-.2-.61-.343-.19-.146-.352-.326-.483-.54h-.028v3.724h-1.19v-9.996zm5.6 3.556c0-.336-.044-.665-.133-.987-.09-.322-.224-.61-.406-.86-.182-.253-.415-.454-.7-.603-.285-.15-.618-.224-1-.224-.402 0-.743.08-1.023.238-.28.158-.51.366-.686.623-.177.257-.306.55-.385.876-.08.326-.12.658-.12.994 0 .354.043.697.127 1.03.083.33.216.622.398.874.182.252.418.455.707.61.29.153.64.23 1.05.23.41 0 .754-.08 1.03-.238.274-.16.496-.37.664-.63.167-.262.288-.56.363-.896.075-.336.112-.682.112-1.036zm7.686-.63c-.018-.28-.08-.546-.188-.798-.107-.252-.252-.47-.434-.65-.182-.183-.397-.328-.644-.435-.247-.107-.52-.16-.82-.16-.307 0-.585.053-.832.16-.247.108-.46.255-.637.442-.177.186-.317.403-.42.65-.103.248-.163.512-.182.792H59.5zm1.15 2.016c-.16.812-.51 1.423-1.05 1.834-.542.41-1.224.616-2.045.616-.58 0-1.08-.094-1.505-.28-.425-.187-.782-.448-1.07-.784-.29-.336-.507-.738-.652-1.204-.145-.467-.226-.976-.245-1.526 0-.55.084-1.055.252-1.512.168-.458.404-.854.707-1.19.303-.336.663-.598 1.078-.784.415-.187.87-.28 1.365-.28.644 0 1.178.133 1.603.4.425.265.765.603 1.022 1.014.257.41.434.858.532 1.344.098.485.138.947.12 1.386h-5.42c-.008.317.03.618.113.903.084.284.22.536.406.756.188.22.426.394.715.525.29.13.63.196 1.022.196.504 0 .917-.117 1.24-.35.32-.234.533-.588.636-1.064h1.176zm1.3-4.942v7.238h1.19v-3.22c0-.467.048-.88.14-1.24.094-.36.244-.664.45-.916.204-.252.475-.444.81-.574.337-.13.743-.196 1.22-.196v-1.26c-.645-.02-1.177.112-1.597.392-.42.28-.775.714-1.064 1.302h-.03v-1.526h-1.12zm5.433 4.956h-1.19c.02.448.112.828.28 1.14.168.313.392.565.672.757.28.192.602.33.966.414.365.084.748.126 1.15.126.363 0 .73-.035 1.098-.105.37-.07.7-.194.994-.37.294-.18.532-.412.714-.7.182-.29.273-.655.273-1.093 0-.346-.07-.635-.204-.868-.135-.234-.313-.427-.532-.58-.22-.155-.47-.28-.756-.372-.285-.094-.576-.173-.875-.238-.28-.066-.56-.13-.84-.19-.28-.06-.532-.135-.756-.223-.224-.088-.408-.2-.553-.335-.145-.136-.217-.306-.217-.51 0-.188.047-.34.14-.456.093-.118.215-.21.364-.28.15-.07.316-.12.498-.148.182-.028.362-.042.54-.042.195 0 .39.02.58.063.19.042.366.11.525.203.16.093.29.217.392.37.103.155.163.348.182.582h1.19c-.028-.44-.12-.805-.28-1.1-.16-.293-.37-.527-.637-.7-.266-.172-.572-.293-.917-.363-.345-.07-.723-.105-1.134-.105-.318 0-.638.04-.96.12-.322.078-.61.2-.868.363-.257.163-.467.375-.63.637-.163.26-.245.574-.245.938 0 .466.117.83.35 1.092.233.26.525.464.875.61.35.143.73.255 1.14.335.412.08.792.168 1.142.266.35.1.642.227.875.386.232.158.35.392.35.7 0 .224-.057.408-.17.553-.11.143-.253.253-.426.328-.173.074-.362.126-.567.154-.205.028-.4.042-.588.042-.244 0-.48-.024-.708-.07-.23-.047-.434-.124-.616-.23-.182-.11-.33-.253-.44-.435-.113-.183-.174-.405-.183-.666z"/></g></svg>